<svg style="vertical-align: -1.948ex;" xmlns="http://www.w3.org/2000/svg" width="34.471ex" height="5.027ex" role="img" focusable="false" viewBox="0 -1361 15236.1 2222"><g stroke="currentColor" fill="currentColor" stroke-width="0" transform="scale(1,-1)"><g data-mml-node="math"><g data-mml-node="TeXAtom" data-mjx-texclass="ORD"><g data-mml-node="mi"><path data-c="1D53C" d="M12 666Q12 675 24 683H582Q590 680 593 672V588Q593 514 591 502T575 490Q567 490 563 495T555 517Q552 556 517 590Q486 623 445 634T340 648H282Q266 636 264 620T260 492V370H277Q329 375 358 391T404 439Q420 480 420 506Q420 529 436 529Q445 529 451 521Q455 517 455 361Q455 333 455 298T456 253Q456 217 453 207T437 197Q420 196 420 217Q420 240 406 270Q377 328 284 335H260V201Q261 174 261 134Q262 73 264 61T278 38Q281 36 282 35H331Q400 35 449 50Q571 93 602 179Q605 203 622 203Q629 203 634 197T640 183Q638 181 624 95T604 3L600 -1H24Q12 5 12 16Q12 35 51 35Q92 38 97 52Q102 60 102 341T97 632Q91 645 51 648Q12 648 12 666ZM137 341Q137 131 136 89T130 37Q129 36 129 35H235Q233 41 231 48L226 61V623L231 635L235 648H129Q132 641 133 638T135 603T137 517T137 341ZM557 603V648H504Q504 646 515 639Q527 634 542 619L557 603ZM420 317V397L406 383Q394 370 380 363L366 355Q373 350 382 346Q400 333 409 328L420 317ZM582 61L586 88Q585 88 582 83Q557 61 526 46L511 37L542 35H577Q577 36 578 39T580 49T582 61Z"></path></g></g><g data-mml-node="mrow" transform="translate(833.7,0)"><g data-mml-node="mo"><path data-c="5B" d="M118 -250V750H255V710H158V-210H255V-250H118Z"></path></g><g data-mml-node="mi" transform="translate(278,0)"><path data-c="1D44C" d="M66 637Q54 637 49 637T39 638T32 641T30 647T33 664T42 682Q44 683 56 683Q104 680 165 680Q288 680 306 683H316Q322 677 322 674T320 656Q316 643 310 637H298Q242 637 242 624Q242 619 292 477T343 333L346 336Q350 340 358 349T379 373T411 410T454 461Q546 568 561 587T577 618Q577 634 545 637Q528 637 528 647Q528 649 530 661Q533 676 535 679T549 683Q551 683 578 682T657 680Q684 680 713 681T746 682Q763 682 763 673Q763 669 760 657T755 643Q753 637 734 637Q662 632 617 587Q608 578 477 424L348 273L322 169Q295 62 295 57Q295 46 363 46Q379 46 384 45T390 35Q390 33 388 23Q384 6 382 4T366 1Q361 1 324 1T232 2Q170 2 138 2T102 1Q84 1 84 9Q84 14 87 24Q88 27 89 30T90 35T91 39T93 42T96 44T101 45T107 45T116 46T129 46Q168 47 180 50T198 63Q201 68 227 171L252 274L129 623Q128 624 127 625T125 627T122 629T118 631T113 633T105 634T96 635T83 636T66 637Z"></path></g><g data-mml-node="mo" transform="translate(1041,0)"><path data-c="5D" d="M22 710V750H159V-250H22V-210H119V710H22Z"></path></g></g><g data-mml-node="mo" transform="translate(2430.4,0)"><path data-c="3D" d="M56 347Q56 360 70 367H707Q722 359 722 347Q722 336 708 328L390 327H72Q56 332 56 347ZM56 153Q56 168 72 173H708Q722 163 722 153Q722 140 707 133H70Q56 140 56 153Z"></path></g><g data-mml-node="mo" transform="translate(3486.2,0) translate(0 1)"><path data-c="222B" d="M114 -798Q132 -824 165 -824H167Q195 -824 223 -764T275 -600T320 -391T362 -164Q365 -143 367 -133Q439 292 523 655T645 1127Q651 1145 655 1157T672 1201T699 1257T733 1306T777 1346T828 1360Q884 1360 912 1325T944 1245Q944 1220 932 1205T909 1186T887 1183Q866 1183 849 1198T832 1239Q832 1287 885 1296L882 1300Q879 1303 874 1307T866 1313Q851 1323 833 1323Q819 1323 807 1311T775 1255T736 1139T689 936T633 628Q574 293 510 -5T410 -437T355 -629Q278 -862 165 -862Q125 -862 92 -831T55 -746Q55 -711 74 -698T112 -685Q133 -685 150 -700T167 -741Q167 -789 114 -798Z"></path></g><g data-mml-node="TeXAtom" data-mjx-texclass="ORD" transform="translate(4596.9,0)"><g data-mml-node="mi"><path data-c="1D53C" d="M12 666Q12 675 24 683H582Q590 680 593 672V588Q593 514 591 502T575 490Q567 490 563 495T555 517Q552 556 517 590Q486 623 445 634T340 648H282Q266 636 264 620T260 492V370H277Q329 375 358 391T404 439Q420 480 420 506Q420 529 436 529Q445 529 451 521Q455 517 455 361Q455 333 455 298T456 253Q456 217 453 207T437 197Q420 196 420 217Q420 240 406 270Q377 328 284 335H260V201Q261 174 261 134Q262 73 264 61T278 38Q281 36 282 35H331Q400 35 449 50Q571 93 602 179Q605 203 622 203Q629 203 634 197T640 183Q638 181 624 95T604 3L600 -1H24Q12 5 12 16Q12 35 51 35Q92 38 97 52Q102 60 102 341T97 632Q91 645 51 648Q12 648 12 666ZM137 341Q137 131 136 89T130 37Q129 36 129 35H235Q233 41 231 48L226 61V623L231 635L235 648H129Q132 641 133 638T135 603T137 517T137 341ZM557 603V648H504Q504 646 515 639Q527 634 542 619L557 603ZM420 317V397L406 383Q394 370 380 363L366 355Q373 350 382 346Q400 333 409 328L420 317ZM582 61L586 88Q585 88 582 83Q557 61 526 46L511 37L542 35H577Q577 36 578 39T580 49T582 61Z"></path></g></g><g data-mml-node="mrow" transform="translate(5430.6,0)"><g data-mml-node="mo"><path data-c="5B" d="M118 -250V750H255V710H158V-210H255V-250H118Z"></path></g><g data-mml-node="mtext" transform="translate(278,0)"><path data-c="A0" d=""></path></g><g data-mml-node="mi" transform="translate(528,0)"><path data-c="1D44C" d="M66 637Q54 637 49 637T39 638T32 641T30 647T33 664T42 682Q44 683 56 683Q104 680 165 680Q288 680 306 683H316Q322 677 322 674T320 656Q316 643 310 637H298Q242 637 242 624Q242 619 292 477T343 333L346 336Q350 340 358 349T379 373T411 410T454 461Q546 568 561 587T577 618Q577 634 545 637Q528 637 528 647Q528 649 530 661Q533 676 535 679T549 683Q551 683 578 682T657 680Q684 680 713 681T746 682Q763 682 763 673Q763 669 760 657T755 643Q753 637 734 637Q662 632 617 587Q608 578 477 424L348 273L322 169Q295 62 295 57Q295 46 363 46Q379 46 384 45T390 35Q390 33 388 23Q384 6 382 4T366 1Q361 1 324 1T232 2Q170 2 138 2T102 1Q84 1 84 9Q84 14 87 24Q88 27 89 30T90 35T91 39T93 42T96 44T101 45T107 45T116 46T129 46Q168 47 180 50T198 63Q201 68 227 171L252 274L129 623Q128 624 127 625T125 627T122 629T118 631T113 633T105 634T96 635T83 636T66 637Z"></path></g><g data-mml-node="mo" transform="translate(1568.8,0)"><path data-c="2223" d="M139 -249H137Q125 -249 119 -235V251L120 737Q130 750 139 750Q152 750 159 735V-235Q151 -249 141 -249H139Z"></path></g><g data-mml-node="mi" transform="translate(2124.6,0)"><path data-c="1D44B" d="M42 0H40Q26 0 26 11Q26 15 29 27Q33 41 36 43T55 46Q141 49 190 98Q200 108 306 224T411 342Q302 620 297 625Q288 636 234 637H206Q200 643 200 645T202 664Q206 677 212 683H226Q260 681 347 681Q380 681 408 681T453 682T473 682Q490 682 490 671Q490 670 488 658Q484 643 481 640T465 637Q434 634 411 620L488 426L541 485Q646 598 646 610Q646 628 622 635Q617 635 609 637Q594 637 594 648Q594 650 596 664Q600 677 606 683H618Q619 683 643 683T697 681T738 680Q828 680 837 683H845Q852 676 852 672Q850 647 840 637H824Q790 636 763 628T722 611T698 593L687 584Q687 585 592 480L505 384Q505 383 536 304T601 142T638 56Q648 47 699 46Q734 46 734 37Q734 35 732 23Q728 7 725 4T711 1Q708 1 678 1T589 2Q528 2 496 2T461 1Q444 1 444 10Q444 11 446 25Q448 35 450 39T455 44T464 46T480 47T506 54Q523 62 523 64Q522 64 476 181L429 299Q241 95 236 84Q232 76 232 72Q232 53 261 47Q262 47 267 47T273 46Q276 46 277 46T280 45T283 42T284 35Q284 26 282 19Q279 6 276 4T261 1Q258 1 243 1T201 2T142 2Q64 2 42 0Z"></path></g><g data-mml-node="mo" transform="translate(3254.3,0)"><path data-c="3D" d="M56 347Q56 360 70 367H707Q722 359 722 347Q722 336 708 328L390 327H72Q56 332 56 347ZM56 153Q56 168 72 173H708Q722 163 722 153Q722 140 707 133H70Q56 140 56 153Z"></path></g><g data-mml-node="mi" transform="translate(4310.1,0)"><path data-c="1D465" d="M52 289Q59 331 106 386T222 442Q257 442 286 424T329 379Q371 442 430 442Q467 442 494 420T522 361Q522 332 508 314T481 292T458 288Q439 288 427 299T415 328Q415 374 465 391Q454 404 425 404Q412 404 406 402Q368 386 350 336Q290 115 290 78Q290 50 306 38T341 26Q378 26 414 59T463 140Q466 150 469 151T485 153H489Q504 153 504 145Q504 144 502 134Q486 77 440 33T333 -11Q263 -11 227 52Q186 -10 133 -10H127Q78 -10 57 16T35 71Q35 103 54 123T99 143Q142 143 142 101Q142 81 130 66T107 46T94 41L91 40Q91 39 97 36T113 29T132 26Q168 26 194 71Q203 87 217 139T245 247T261 313Q266 340 266 352Q266 380 251 392T217 404Q177 404 142 372T93 290Q91 281 88 280T72 278H58Q52 284 52 289Z"></path></g><g data-mml-node="mtext" transform="translate(4882.1,0)"><path data-c="A0" d=""></path></g><g data-mml-node="mo" transform="translate(5132.1,0)"><path data-c="5D" d="M22 710V750H159V-250H22V-210H119V710H22Z"></path></g></g><g data-mml-node="mtext" transform="translate(10840.7,0)"><path data-c="A0" d=""></path></g><g data-mml-node="msub" transform="translate(11090.7,0)"><g data-mml-node="mi"><path data-c="1D453" d="M118 -162Q120 -162 124 -164T135 -167T147 -168Q160 -168 171 -155T187 -126Q197 -99 221 27T267 267T289 382V385H242Q195 385 192 387Q188 390 188 397L195 425Q197 430 203 430T250 431Q298 431 298 432Q298 434 307 482T319 540Q356 705 465 705Q502 703 526 683T550 630Q550 594 529 578T487 561Q443 561 443 603Q443 622 454 636T478 657L487 662Q471 668 457 668Q445 668 434 658T419 630Q412 601 403 552T387 469T380 433Q380 431 435 431Q480 431 487 430T498 424Q499 420 496 407T491 391Q489 386 482 386T428 385H372L349 263Q301 15 282 -47Q255 -132 212 -173Q175 -205 139 -205Q107 -205 81 -186T55 -132Q55 -95 76 -78T118 -61Q162 -61 162 -103Q162 -122 151 -136T127 -157L118 -162Z"></path></g><g data-mml-node="mi" transform="translate(523,-150) scale(0.707)"><path data-c="1D44B" d="M42 0H40Q26 0 26 11Q26 15 29 27Q33 41 36 43T55 46Q141 49 190 98Q200 108 306 224T411 342Q302 620 297 625Q288 636 234 637H206Q200 643 200 645T202 664Q206 677 212 683H226Q260 681 347 681Q380 681 408 681T453 682T473 682Q490 682 490 671Q490 670 488 658Q484 643 481 640T465 637Q434 634 411 620L488 426L541 485Q646 598 646 610Q646 628 622 635Q617 635 609 637Q594 637 594 648Q594 650 596 664Q600 677 606 683H618Q619 683 643 683T697 681T738 680Q828 680 837 683H845Q852 676 852 672Q850 647 840 637H824Q790 636 763 628T722 611T698 593L687 584Q687 585 592 480L505 384Q505 383 536 304T601 142T638 56Q648 47 699 46Q734 46 734 37Q734 35 732 23Q728 7 725 4T711 1Q708 1 678 1T589 2Q528 2 496 2T461 1Q444 1 444 10Q444 11 446 25Q448 35 450 39T455 44T464 46T480 47T506 54Q523 62 523 64Q522 64 476 181L429 299Q241 95 236 84Q232 76 232 72Q232 53 261 47Q262 47 267 47T273 46Q276 46 277 46T280 45T283 42T284 35Q284 26 282 19Q279 6 276 4T261 1Q258 1 243 1T201 2T142 2Q64 2 42 0Z"></path></g></g><g data-mml-node="mo" transform="translate(12266.1,0)"><path data-c="28" d="M94 250Q94 319 104 381T127 488T164 576T202 643T244 695T277 729T302 750H315H319Q333 750 333 741Q333 738 316 720T275 667T226 581T184 443T167 250T184 58T225 -81T274 -167T316 -220T333 -241Q333 -250 318 -250H315H302L274 -226Q180 -141 137 -14T94 250Z"></path></g><g data-mml-node="mi" transform="translate(12655.1,0)"><path data-c="1D465" d="M52 289Q59 331 106 386T222 442Q257 442 286 424T329 379Q371 442 430 442Q467 442 494 420T522 361Q522 332 508 314T481 292T458 288Q439 288 427 299T415 328Q415 374 465 391Q454 404 425 404Q412 404 406 402Q368 386 350 336Q290 115 290 78Q290 50 306 38T341 26Q378 26 414 59T463 140Q466 150 469 151T485 153H489Q504 153 504 145Q504 144 502 134Q486 77 440 33T333 -11Q263 -11 227 52Q186 -10 133 -10H127Q78 -10 57 16T35 71Q35 103 54 123T99 143Q142 143 142 101Q142 81 130 66T107 46T94 41L91 40Q91 39 97 36T113 29T132 26Q168 26 194 71Q203 87 217 139T245 247T261 313Q266 340 266 352Q266 380 251 392T217 404Q177 404 142 372T93 290Q91 281 88 280T72 278H58Q52 284 52 289Z"></path></g><g data-mml-node="mo" transform="translate(13227.1,0)"><path data-c="29" d="M60 749L64 750Q69 750 74 750H86L114 726Q208 641 251 514T294 250Q294 182 284 119T261 12T224 -76T186 -143T145 -194T113 -227T90 -246Q87 -249 86 -250H74Q66 -250 63 -250T58 -247T55 -238Q56 -237 66 -225Q221 -64 221 250T66 725Q56 737 55 738Q55 746 60 749Z"></path></g><g data-mml-node="mtext" transform="translate(13616.1,0)"><path data-c="A0" d=""></path></g><g data-mml-node="mi" transform="translate(13866.1,0)"><path data-c="1D451" d="M366 683Q367 683 438 688T511 694Q523 694 523 686Q523 679 450 384T375 83T374 68Q374 26 402 26Q411 27 422 35Q443 55 463 131Q469 151 473 152Q475 153 483 153H487H491Q506 153 506 145Q506 140 503 129Q490 79 473 48T445 8T417 -8Q409 -10 393 -10Q359 -10 336 5T306 36L300 51Q299 52 296 50Q294 48 292 46Q233 -10 172 -10Q117 -10 75 30T33 157Q33 205 53 255T101 341Q148 398 195 420T280 442Q336 442 364 400Q369 394 369 396Q370 400 396 505T424 616Q424 629 417 632T378 637H357Q351 643 351 645T353 664Q358 683 366 683ZM352 326Q329 405 277 405Q242 405 210 374T160 293Q131 214 119 129Q119 126 119 118T118 106Q118 61 136 44T179 26Q233 26 290 98L298 109L352 326Z"></path></g><g data-mml-node="mi" transform="translate(14386.1,0)"><path data-c="1D465" d="M52 289Q59 331 106 386T222 442Q257 442 286 424T329 379Q371 442 430 442Q467 442 494 420T522 361Q522 332 508 314T481 292T458 288Q439 288 427 299T415 328Q415 374 465 391Q454 404 425 404Q412 404 406 402Q368 386 350 336Q290 115 290 78Q290 50 306 38T341 26Q378 26 414 59T463 140Q466 150 469 151T485 153H489Q504 153 504 145Q504 144 502 134Q486 77 440 33T333 -11Q263 -11 227 52Q186 -10 133 -10H127Q78 -10 57 16T35 71Q35 103 54 123T99 143Q142 143 142 101Q142 81 130 66T107 46T94 41L91 40Q91 39 97 36T113 29T132 26Q168 26 194 71Q203 87 217 139T245 247T261 313Q266 340 266 352Q266 380 251 392T217 404Q177 404 142 372T93 290Q91 281 88 280T72 278H58Q52 284 52 289Z"></path></g><g data-mml-node="mo" transform="translate(14958.1,0)"><path data-c="2E" d="M78 60Q78 84 95 102T138 120Q162 120 180 104T199 61Q199 36 182 18T139 0T96 17T78 60Z"></path></g></g></g></svg>